<?xml version="1.0" encoding="UTF-8" standalone="no"?>
<!DOCTYPE svg PUBLIC "-//W3C//DTD SVG 1.1//EN" "http://www.w3.org/Graphics/SVG/1.1/DTD/svg11.dtd">
<svg width="100%" height="100%" viewBox="0 0 1122 515" version="1.1" xmlns="http://www.w3.org/2000/svg" xmlns:xlink="http://www.w3.org/1999/xlink" xml:space="preserve" xmlns:serif="http://www.serif.com/" style="fill-rule:evenodd;clip-rule:evenodd;stroke-miterlimit:10;">
    <g id="Page-1" serif:id="Page 1" transform="matrix(0.915923,0,0,0.650205,0,0)">
        <rect x="0" y="0" width="1224" height="792" style="fill:none;"/>
        <clipPath id="_clip1">
            <rect x="0" y="0" width="1224" height="792"/>
        </clipPath>
        <g clip-path="url(#_clip1)">
            <g transform="matrix(32.8285,46.2444,32.8285,-46.2444,1036.99,460.896)">
                <path d="M0,-0.254L0.652,0.398L0.561,0.489L1,0.489L1,0.049L0.887,0.163L0.235,-0.489L0,-0.254Z" style="fill:url(#_Linear2);fill-rule:nonzero;"/>
            </g>
            <g transform="matrix(1.09179,0,0,1.53798,1028.66,503.515)">
                <path d="M0,-5.066L38.304,-5.066L38.304,1.766L40.069,-0.017L40.069,-6.832L0,-6.832L0,-5.066Z" style="fill:rgb(123,187,206);fill-rule:nonzero;"/>
            </g>
            <g transform="matrix(26.2521,36.9805,26.2521,-36.9805,306.191,465.528)">
                <path d="M-0,-0.192L0.564,0.372L0.45,0.486L1,0.486L1,-0.064L0.858,0.078L0.294,-0.486L-0,-0.192Z" style="fill:url(#_Linear3);fill-rule:nonzero;"/>
            </g>
            <g transform="matrix(1.09179,0,0,1.53798,301.144,503.515)">
                <path d="M0,-5.066L26.257,-5.066L26.257,1.766L28.022,-0.017L28.022,-6.832L0,-6.832L0,-5.066Z" style="fill:rgb(123,187,206);fill-rule:nonzero;"/>
            </g>
            <g transform="matrix(1.09179,0,0,1.53798,304.044,457.017)">
                <path d="M0,42.915C0,48.793 -4.81,53.603 -10.688,53.603L-90.148,53.603C-96.026,53.603 -100.836,48.793 -100.836,42.915L-100.836,0C-100.836,-5.878 -96.026,-10.688 -90.148,-10.688L-10.688,-10.688C-4.81,-10.688 0,-5.878 0,0L0,42.915Z" style="fill:rgb(21,152,180);fill-rule:nonzero;"/>
            </g>
            <g transform="matrix(1.09179,0,0,1.53798,633.641,422.26)">
                <path d="M0,-223.968L461.583,-223.968C467.462,-223.968 472.271,-219.158 472.271,-213.28L472.271,0" style="fill:none;fill-rule:nonzero;stroke:rgb(200,224,231);stroke-width:8.54px;"/>
            </g>
            <g transform="matrix(1.09179,0,0,1.53798,637.724,58.1465)">
                <path d="M0,25.561L-22.133,12.781L0,0L0,25.561Z" style="fill:rgb(200,224,231);fill-rule:nonzero;"/>
            </g>
            <g transform="matrix(1.09179,0,0,1.53798,88.3526,628.673)">
                <path d="M0,28.89L0,64.198C0,70.076 4.81,74.885 10.688,74.885L961.025,74.885C966.904,74.885 971.713,70.076 971.713,64.198L971.713,-45.995" style="fill:none;fill-rule:nonzero;stroke:rgb(200,224,231);stroke-width:8.54px;stroke-dasharray:1.07,0,0.01,1.05,0.01,0;"/>
            </g>
            <g transform="matrix(1.09179,0,0,1.53798,74.3991,644.816)">
                <path d="M0,22.133L12.78,0L25.561,22.133L0,22.133Z" style="fill:rgb(200,224,231);fill-rule:nonzero;"/>
            </g>
            <g transform="matrix(0,-1.53798,-1.09179,0,249.289,376.524)">
                <path d="M-0.267,0.267L0.267,0.267" style="fill:none;fill-rule:nonzero;stroke:rgb(200,224,231);stroke-width:8.54px;"/>
            </g>
            <g transform="matrix(0,-1.53798,-1.09179,0,249.035,376.06)">
                <path d="M-0.034,0.034L0.034,0.034" style="fill:none;fill-rule:nonzero;stroke:rgb(200,224,231);stroke-width:8.54px;stroke-dasharray:0.01,1.05,0.01,0;"/>
            </g>
            <g transform="matrix(1.09179,0,0,1.53798,248.997,77.8023)">
                <path d="M0,192.894L0,10.688C0,4.81 4.81,0 10.688,0L211.728,0" style="fill:none;fill-rule:nonzero;stroke:rgb(200,224,231);stroke-width:8.54px;stroke-dasharray:1.07,0,0.01,1.05,0.01,0;"/>
            </g>
            <g transform="matrix(1.09179,0,0,1.53798,480.161,77.8031)">
                <path d="M0,0L0.534,0" style="fill:none;fill-rule:nonzero;stroke:rgb(200,224,231);stroke-width:8.54px;"/>
            </g>
            <g transform="matrix(1.09179,0,0,1.53798,262.951,405.223)">
                <path d="M0,-22.133L-12.78,0L-25.561,-22.133L0,-22.133Z" style="fill:rgb(200,224,231);fill-rule:nonzero;"/>
            </g>
            <g transform="matrix(0,1.53798,1.09179,0,995.998,459.103)">
                <path d="M-6.05,-43.566L42.357,-43.566L62.525,-6.05L-25.009,-6.05L-6.05,-43.566Z" style="fill:rgb(123,187,206);fill-rule:nonzero;"/>
            </g>
            <g transform="matrix(0.961646,0.728232,0.516965,-1.35464,943.575,507.998)">
                <path d="M8.922,-7.199L51.515,-7.199L28.834,34.991L-13.999,35.438L8.922,-7.199Z" style="fill:rgb(123,187,206);fill-rule:nonzero;"/>
            </g>
            <g transform="matrix(0.944188,0.772233,0.548201,-1.33005,937.855,455.688)">
                <path d="M2.202,-13.419L45.583,-13.419L49.281,9.134L6.455,8.177L2.202,-13.419Z" style="fill:rgb(62,156,182);fill-rule:nonzero;"/>
            </g>
            <g transform="matrix(-0.963912,0.722262,0.512727,1.35783,958.615,455.195)">
                <path d="M-30.741,-27.831L12.208,-27.831L6.585,-7.478L-35.439,-6.597L-30.741,-27.831Z" style="fill:rgb(62,156,182);fill-rule:nonzero;"/>
            </g>
            <g transform="matrix(0.96164,-0.728247,-0.516976,-1.35463,1014.46,560.901)">
                <path d="M-18.488,14.099L24.105,14.099L47.026,56.736L22.96,91.198L-18.488,14.099Z" style="fill:rgb(62,156,182);fill-rule:nonzero;"/>
            </g>
            <g transform="matrix(0,1.53798,1.09179,0,1024.74,473.683)">
                <path d="M5.144,-32.371L53.045,-32.371L32.876,5.144L-15.53,5.144L5.144,-32.371Z" style="fill:rgb(62,156,182);fill-rule:nonzero;"/>
            </g>
            <g transform="matrix(0.693725,1.1876,0.843067,-0.977228,998.474,449.847)">
                <path d="M10.655,-19.539L33.508,-19.539L40.526,23.27L18.528,22.565L10.655,-19.539Z" style="fill:rgb(123,187,206);fill-rule:nonzero;"/>
            </g>
            <g transform="matrix(-0.708817,1.16978,0.830418,0.998488,1040.97,426.301)">
                <path d="M6.127,-38.324L27.873,-38.324L17.937,2.518L-3.15,3.612L6.127,-38.324Z" style="fill:rgb(123,187,206);fill-rule:nonzero;"/>
            </g>
            <g transform="matrix(1.09179,0,0,1.53798,1204.15,457.017)">
                <path d="M0,42.915C0,48.793 -4.81,53.603 -10.688,53.603L-90.147,53.603C-96.026,53.603 -100.835,48.793 -100.835,42.915L-100.835,0C-100.835,-5.878 -96.026,-10.688 -90.147,-10.688L-10.688,-10.688C-4.81,-10.688 0,-5.878 0,0L0,42.915Z" style="fill:rgb(21,152,180);fill-rule:nonzero;"/>
            </g>
            <g transform="matrix(1.09179,0,0,1.53798,607.265,49.3442)">
                <path d="M0,42.915C0,48.793 -4.81,53.603 -10.688,53.603L-97.605,53.603C-103.484,53.603 -108.293,48.793 -108.293,42.915L-108.293,0C-108.293,-5.878 -103.484,-10.688 -97.605,-10.688L-10.688,-10.688C-4.81,-10.688 0,-5.878 0,0L0,42.915Z" style="fill:rgb(21,152,180);fill-rule:nonzero;"/>
            </g>
            <g transform="matrix(38.0462,19.5068,13.8477,-53.5944,445.818,472.72)">
                <path d="M0.594,0.218L0,0.002L0.13,-0.356L0.724,-0.14L0.787,-0.313L1,0.144L0.543,0.357L0.594,0.218Z" style="fill:url(#_Linear4);fill-rule:nonzero;"/>
            </g>
            <g transform="matrix(1.09179,0,0,1.53798,445.841,503.515)">
                <path d="M0,-5.066L22.55,-5.066L22.55,1.766L24.315,-0.017L24.315,-6.832L0,-6.832L0,-5.066Z" style="fill:rgb(123,187,206);fill-rule:nonzero;"/>
            </g>
            <g transform="matrix(1.09179,0,0,1.53798,450.018,438.714)">
                <path d="M0,69.396C0,75.274 -4.809,80.084 -10.688,80.084L-80.085,80.084C-85.963,80.084 -90.773,75.274 -90.773,69.396L-90.773,0C-90.773,-5.878 -85.963,-10.688 -80.085,-10.688L-10.688,-10.688C-4.809,-10.688 0,-5.878 0,0L0,69.396Z" style="fill:rgb(21,152,180);fill-rule:nonzero;"/>
            </g>
            <g transform="matrix(1.09179,0,0,1.53798,-53.5963,-85.8145)">
                <rect x="392.237" y="346.979" width="10.362" height="10.363" style="fill:white;"/>
            </g>
            <g transform="matrix(1.09179,0,0,1.53798,-53.5963,-48.4232)">
                <rect x="392.237" y="334.824" width="10.362" height="10.361" style="fill:white;"/>
            </g>
            <g transform="matrix(1.09179,0,0,1.53798,-53.5963,-11.0319)">
                <rect x="392.237" y="322.667" width="10.362" height="10.363" style="fill:white;"/>
            </g>
            <g transform="matrix(1.09179,0,0,1.53798,-53.5963,42.8295)">
                <rect x="392.237" y="299.801" width="10.362" height="21.074" style="fill:white;"/>
            </g>
            <g transform="matrix(1.09179,0,0,1.53798,-53.5963,-85.8145)">
                <rect x="404.547" y="346.979" width="10.365" height="10.363" style="fill:white;"/>
            </g>
            <g transform="matrix(1.09179,0,0,1.53798,-53.5963,-48.4263)">
                <rect x="404.547" y="334.824" width="10.365" height="10.363" style="fill:white;"/>
            </g>
            <g transform="matrix(1.09179,0,0,1.53798,-53.5963,-11.035)">
                <rect x="404.547" y="322.667" width="10.365" height="10.365" style="fill:white;"/>
            </g>
            <g transform="matrix(1.09179,0,0,1.53798,-53.5963,42.8295)">
                <rect x="404.547" y="299.801" width="10.365" height="21.074" style="fill:white;"/>
            </g>
            <g transform="matrix(1.09179,0,0,1.53798,-53.5963,-85.8145)">
                <rect x="416.859" y="346.979" width="10.362" height="10.363" style="fill:white;"/>
            </g>
            <g transform="matrix(1.09179,0,0,1.53798,-53.5963,-48.4263)">
                <rect x="416.859" y="334.824" width="10.364" height="10.363" style="fill:white;"/>
            </g>
            <g transform="matrix(1.09179,0,0,1.53798,-53.5963,-11.035)">
                <rect x="416.859" y="322.667" width="10.364" height="10.365" style="fill:white;"/>
            </g>
            <g transform="matrix(1.09179,0,0,1.53798,-53.5963,42.8295)">
                <rect x="416.859" y="299.801" width="10.362" height="21.074" style="fill:white;"/>
            </g>
            <g transform="matrix(1.09179,0,0,1.53798,-53.5963,-85.8145)">
                <rect x="429.169" y="346.979" width="10.364" height="10.363" style="fill:white;"/>
            </g>
            <g transform="matrix(1.09179,0,0,1.53798,-53.5963,-29.726)">
                <rect x="429.169" y="322.667" width="10.364" height="22.518" style="fill:white;"/>
            </g>
            <g transform="matrix(1.09179,0,0,1.53798,-53.5963,42.8295)">
                <rect x="429.169" y="299.801" width="10.364" height="21.074" style="fill:white;"/>
            </g>
            <g transform="matrix(-4.6546e-14,140.438,99.6954,6.55678e-14,793.289,182.243)">
                <circle cx="0.5" cy="0" r="0.5" style="fill:url(#_Linear5);"/>
            </g>
            <g transform="matrix(-14.3262,110.466,78.4185,20.1808,540.011,474.336)">
                <path d="M0.384,-0.529C0.304,-0.09 0.548,0.314 0.964,0.593L0.384,0.484C0.106,0.164 -0.037,-0.197 0.036,-0.593L0.384,-0.529Z" style="fill:url(#_Linear6);fill-rule:nonzero;"/>
            </g>
            <g transform="matrix(42.2636,59.5353,42.2636,-59.5353,844.338,493.964)">
                <path d="M0.505,0.969L0.471,0.935C0.054,0.519 -0.03,0.047 0.008,-0.538L0.562,-1.099C0.335,-0.459 0.343,0.14 0.805,0.601L0.839,0.635L1,0.474L0.961,1.06L0.375,1.099L0.505,0.969Z" style="fill:url(#_Linear7);fill-rule:nonzero;"/>
            </g>
            <g transform="matrix(145.813,355.766,252.555,-205.402,624.159,310.784)">
                <path d="M0.25,-0.433C0.489,-0.571 0.795,-0.489 0.933,-0.25C1.071,-0.011 0.989,0.295 0.75,0.433C0.511,0.571 0.205,0.489 0.067,0.25C-0.071,0.011 0.011,-0.295 0.25,-0.433ZM0.304,-0.339C0.117,-0.231 0.053,0.009 0.161,0.196C0.269,0.383 0.509,0.447 0.696,0.339C0.883,0.231 0.947,-0.009 0.839,-0.196C0.731,-0.383 0.491,-0.447 0.304,-0.339Z" style="fill:url(#_Linear8);fill-rule:nonzero;"/>
            </g>
            <g transform="matrix(1.09179,0,0,1.53798,697.065,694.108)">
                <path d="M0,-267.158C-73.656,-267.158 -133.58,-207.237 -133.58,-133.58C-133.58,-59.923 -73.656,0 0,0C73.657,0 133.58,-59.923 133.58,-133.58C133.58,-207.237 73.657,-267.158 0,-267.158M0,-263.927C71.874,-263.927 130.349,-205.454 130.349,-133.58C130.349,-61.706 71.874,-3.231 0,-3.231C-71.874,-3.231 -130.349,-61.706 -130.349,-133.58C-130.349,-205.454 -71.874,-263.927 0,-263.927" style="fill:rgb(123,187,206);fill-rule:nonzero;"/>
            </g>
            <g transform="matrix(1.09179,0,0,1.53798,822.995,503.582)">
                <path d="M0,56.911L-2.484,55.367C14.339,20.049 38.897,0 73.979,0L78.03,0L78.03,12.47L75.201,15.734L75.201,3.231L73.979,3.231C39.934,3.231 16.327,22.633 0,56.911" style="fill:rgb(123,187,206);fill-rule:nonzero;"/>
            </g>
            <g transform="matrix(0.679088,-1.20427,-0.854901,-0.956608,581.513,532.879)">
                <path d="M-35.514,-16.465C-17.927,16.51 -18.738,49.024 -38.044,73.328L-35.514,75.337C-15.62,50.293 -14.776,16.696 -32.896,-17.277L-35.514,-16.465Z" style="fill:rgb(123,187,206);fill-rule:nonzero;"/>
            </g>
            <g transform="matrix(0,-1.53798,-1.09179,0,753.666,485.86)">
                <path d="M-14.911,-14.904C-23.14,-14.904 -29.815,-8.231 -29.815,-0C-29.815,8.236 -23.14,14.911 -14.911,14.911C-6.676,14.911 0,8.236 0,-0C0,-8.231 -6.676,-14.904 -14.911,-14.904" style="fill:rgb(127,160,62);fill-rule:nonzero;"/>
            </g>
            <g transform="matrix(1.09179,0,0,1.53798,778.165,544.951)">
                <path d="M0,15.581L0,1.48C0,-2.78 -3.368,-6.264 -7.482,-6.264L-17.376,-6.264L-22.439,-0.345L-27.509,-6.264L-37.403,-6.264C-41.518,-6.264 -44.882,-2.78 -44.882,1.48L-44.882,15.581C-38.329,19.556 -30.648,21.845 -22.439,21.845C-14.234,21.845 -6.553,19.556 0,15.581" style="fill:rgb(127,160,62);fill-rule:nonzero;"/>
            </g>
            <g transform="matrix(0,-1.53798,-1.09179,0,640.471,382.225)">
                <path d="M-14.911,-14.904C-23.14,-14.904 -29.815,-8.229 -29.815,0.003C-29.815,8.235 -23.14,14.911 -14.911,14.911C-6.676,14.911 0,8.235 0,0.003C0,-8.229 -6.676,-14.904 -14.911,-14.904" style="fill:rgb(206,73,39);fill-rule:nonzero;"/>
            </g>
            <g transform="matrix(1.09179,0,0,1.53798,664.97,441.316)">
                <path d="M0,15.581L0,1.48C0,-2.78 -3.368,-6.264 -7.482,-6.264L-17.376,-6.264L-22.442,-0.344L-27.509,-6.264L-37.403,-6.264C-41.517,-6.264 -44.885,-2.78 -44.885,1.48L-44.885,15.581C-38.332,19.556 -30.648,21.845 -22.442,21.845C-14.237,21.845 -6.553,19.556 0,15.581" style="fill:rgb(206,73,39);fill-rule:nonzero;"/>
            </g>
            <g transform="matrix(0,-1.53798,-1.09179,0,640.471,485.86)">
                <path d="M-14.911,-14.904C-23.14,-14.904 -29.815,-8.229 -29.815,0.003C-29.815,8.235 -23.14,14.911 -14.911,14.911C-6.676,14.911 0,8.235 0,0.003C0,-8.229 -6.676,-14.904 -14.911,-14.904" style="fill:rgb(206,73,39);fill-rule:nonzero;"/>
            </g>
            <g transform="matrix(1.09179,0,0,1.53798,664.97,544.951)">
                <path d="M0,15.581L0,1.48C0,-2.78 -3.368,-6.264 -7.482,-6.264L-17.376,-6.264L-22.442,-0.345L-27.509,-6.264L-37.403,-6.264C-41.517,-6.264 -44.885,-2.78 -44.885,1.48L-44.885,15.581C-38.332,19.556 -30.648,21.845 -22.442,21.845C-14.237,21.845 -6.553,19.556 0,15.581" style="fill:rgb(206,73,39);fill-rule:nonzero;"/>
            </g>
            <g transform="matrix(0,-1.53798,-1.09179,0,697.07,540.592)">
                <path d="M-14.911,-14.904C-23.14,-14.904 -29.815,-8.229 -29.815,0.003C-29.815,8.235 -23.14,14.911 -14.911,14.911C-6.676,14.911 0,8.235 0,0.003C0,-8.229 -6.676,-14.904 -14.911,-14.904" style="fill:rgb(206,73,39);fill-rule:nonzero;"/>
            </g>
            <g transform="matrix(1.09179,0,0,1.53798,721.569,599.683)">
                <path d="M0,15.581L0,1.48C0,-2.78 -3.368,-6.264 -7.482,-6.264L-17.376,-6.264L-22.442,-0.344L-27.509,-6.264L-37.403,-6.264C-41.517,-6.264 -44.885,-2.78 -44.885,1.48L-44.885,15.581C-38.332,19.556 -30.648,21.845 -22.442,21.845C-14.237,21.845 -6.553,19.556 0,15.581" style="fill:rgb(206,73,39);fill-rule:nonzero;"/>
            </g>
            <g transform="matrix(0,-1.53798,-1.09179,0,697.07,344.054)">
                <path d="M-14.911,-14.904C-23.14,-14.904 -29.815,-8.229 -29.815,0.003C-29.815,8.235 -23.14,14.911 -14.911,14.911C-6.676,14.911 0,8.235 0,0.003C0,-8.229 -6.676,-14.904 -14.911,-14.904" style="fill:rgb(206,73,39);fill-rule:nonzero;"/>
            </g>
            <g transform="matrix(1.09179,0,0,1.53798,721.569,403.145)">
                <path d="M0,15.581L0,1.481C0,-2.78 -3.368,-6.264 -7.482,-6.264L-17.376,-6.264L-22.442,-0.344L-27.509,-6.264L-37.403,-6.264C-41.517,-6.264 -44.885,-2.78 -44.885,1.481L-44.885,15.581C-38.332,19.556 -30.648,21.845 -22.442,21.845C-14.237,21.845 -6.553,19.556 0,15.581" style="fill:rgb(206,73,39);fill-rule:nonzero;"/>
            </g>
            <g transform="matrix(0,-1.53798,-1.09179,0,753.666,382.225)">
                <path d="M-14.911,-14.904C-23.14,-14.904 -29.815,-8.231 -29.815,-0C-29.815,8.236 -23.14,14.911 -14.911,14.911C-6.676,14.911 0,8.236 0,-0C0,-8.231 -6.676,-14.904 -14.911,-14.904" style="fill:rgb(60,125,153);fill-rule:nonzero;"/>
            </g>
            <g transform="matrix(1.09179,0,0,1.53798,778.165,441.316)">
                <path d="M0,15.581L0,1.48C0,-2.78 -3.368,-6.264 -7.482,-6.264L-17.376,-6.264L-22.439,-0.344L-27.509,-6.264L-37.403,-6.264C-41.518,-6.264 -44.882,-2.78 -44.882,1.48L-44.882,15.581C-38.329,19.556 -30.648,21.845 -22.439,21.845C-14.234,21.845 -6.553,19.556 0,15.581" style="fill:rgb(60,125,153);fill-rule:nonzero;"/>
            </g>
            <g transform="matrix(38.7534,0,0,-54.5906,147.755,484.535)">
                <path d="M0.628,0.218L0,0.218L0,-0.18L0.628,-0.18L0.628,-0.372L1,0L0.628,0.372L0.628,0.218Z" style="fill:url(#_Linear9);fill-rule:nonzero;"/>
            </g>
            <g transform="matrix(1.09179,0,0,1.53798,147.755,503.515)">
                <path d="M0,-5.066L21.396,-5.066L21.396,1.766L23.163,-0.017L23.163,-6.832L0,-6.832L0,-5.066Z" style="fill:rgb(123,187,206);fill-rule:nonzero;"/>
            </g>
            <g transform="matrix(1.09179,0,0,1.53798,153.268,218.767)">
                <path d="M0,212.407C0,218.285 -4.809,223.095 -10.688,223.095L-106.784,223.095C-112.662,223.095 -117.472,218.285 -117.472,212.407L-117.472,-0.001C-117.472,-5.879 -112.662,-10.688 -106.784,-10.688L-10.688,-10.688C-4.809,-10.688 0,-5.879 0,-0.001L0,212.407Z" style="fill:rgb(21,152,180);fill-rule:nonzero;"/>
            </g>
            <g transform="matrix(1.09179,0,0,1.53798,-53.5963,-532.699)">
                <rect x="89.282" y="493.6" width="82.907" height="7.688" style="fill:white;"/>
            </g>
            <g transform="matrix(1.09179,0,0,1.53798,-53.5963,-503.807)">
                <rect x="89.282" y="484.207" width="82.907" height="7.688" style="fill:white;"/>
            </g>
            <g transform="matrix(1.09179,0,0,1.53798,-53.5963,-474.915)">
                <rect x="89.282" y="474.814" width="82.907" height="7.688" style="fill:white;"/>
            </g>
            <g transform="matrix(1.09179,0,0,1.53798,-53.5963,-446.022)">
                <rect x="89.282" y="465.421" width="82.907" height="7.688" style="fill:white;"/>
            </g>
            <g transform="matrix(1.09179,0,0,1.53798,-53.5963,-404.912)">
                <rect x="89.282" y="448.084" width="82.907" height="15.632" style="fill:white;"/>
            </g>
            <g transform="matrix(1.09179,0,0,1.53798,-53.5963,-351.587)">
                <rect x="89.282" y="430.748" width="82.907" height="15.632" style="fill:white;"/>
            </g>
            <g transform="matrix(1.09179,0,0,1.53798,-53.5963,-278.478)">
                <rect x="89.282" y="400.55" width="82.907" height="28.492" style="fill:white;"/>
            </g>
            <g transform="matrix(1.09179,0,0,1.53798,-53.5963,-7.45768)">
                <rect x="89.282" y="298.867" width="82.907" height="55.639" style="fill:white;"/>
            </g>
            <g transform="matrix(1.09179,0,0,1.53798,-53.5963,-163.844)">
                <rect x="89.282" y="356.211" width="82.907" height="42.634" style="fill:white;"/>
            </g>
            <g transform="matrix(1.09179,0,0,1.53798,-53.5963,-220.663)">
                <text x="105.966px" y="530.21px" style="font-family:'Avenir-Black', 'Avenir', sans-serif;font-weight:800;font-size:14.42px;">Pr<tspan x="120.66px 129.457px " y="530.21px 530.21px ">od</tspan>uct</text>
                <text x="105.952px" y="547.51px" style="font-family:'Avenir-Black', 'Avenir', sans-serif;font-weight:800;font-size:14.42px;">Backlog</text>
            </g>
            <g transform="matrix(1.09179,0,0,1.53798,-53.5963,-220.663)">
                <text x="256.586px" y="458.598px" style="font-family:'Avenir-Black', 'Avenir', sans-serif;font-weight:800;font-size:14.42px;fill:white;">Sprint</text>
                <text x="248.035px" y="475.899px" style="font-family:'Avenir-Black', 'Avenir', sans-serif;font-weight:800;font-size:14.42px;fill:white;">Planning</text>
            </g>
            <g transform="matrix(1.09179,0,0,1.53798,-53.5963,-220.663)">
                <text x="530.586px" y="191.232px" style="font-family:'Avenir-Black', 'Avenir', sans-serif;font-weight:800;font-size:14.42px;fill:white;">Sprint</text>
                <text x="503.75px" y="208.532px" style="font-family:'Avenir-Black', 'Avenir', sans-serif;font-weight:800;font-size:14.42px;fill:white;">Retr<tspan x="532.85px 541.647px " y="208.532px 208.532px ">os</tspan>pective</text>
            </g>
            <g transform="matrix(1.09179,0,0,1.53798,-53.5963,-220.663)">
                <text x="395.05px" y="530.21px" style="font-family:'Avenir-Black', 'Avenir', sans-serif;font-weight:800;font-size:14.42px;">Sprint</text>
                <text x="388.777px" y="547.51px" style="font-family:'Avenir-Black', 'Avenir', sans-serif;font-weight:800;font-size:14.42px;">Backlog</text>
            </g>
            <g transform="matrix(1.09179,0,0,1.53798,-53.5963,-220.663)">
                <text x="921.261px" y="530.21px" style="font-family:'Avenir-Black', 'Avenir', sans-serif;font-weight:800;font-size:14.42px;">Incr<tspan x="946.367px 954.644px " y="530.21px 530.21px ">em</tspan>ent</text>
            </g>
            <g transform="matrix(1.09179,0,0,1.53798,-53.5963,-220.663)">
                <text x="758.571px" y="301.835px" style="font-family:'Avenir-Black', 'Avenir', sans-serif;font-weight:800;font-size:14.42px;fill:white;">Daily</text>
                <text x="754.721px" y="319.136px" style="font-family:'Avenir-Black', 'Avenir', sans-serif;font-weight:800;font-size:14.42px;fill:white;">Scrum</text>
            </g>
            <g transform="matrix(1.09179,0,0,1.53798,-53.5963,-220.663)">
                <text x="1080.98px" y="458.598px" style="font-family:'Avenir-Black', 'Avenir', sans-serif;font-weight:800;font-size:14.42px;fill:white;">Sprint</text>
                <text x="1076.71px" y="475.899px" style="font-family:'Avenir-Black', 'Avenir', sans-serif;font-weight:800;font-size:14.42px;fill:white;">Review</text>
            </g>
            <g transform="matrix(1.01788,0.556251,-0.394878,1.43386,-53.5963,-220.663)">
                <text x="803.682px" y="303.128px" style="font-family:'Avenir-Black', 'Avenir', sans-serif;font-weight:800;font-size:14.42px;fill:white;">1</text>
            </g>
            <g transform="matrix(1.05521,0.394799,-0.280264,1.48644,-53.5963,-220.663)">
                <text x="778.787px" y="391.082px" style="font-family:'Avenir-Black', 'Avenir', sans-serif;font-weight:800;font-size:14.42px;fill:white;">S</text>
            </g>
            <g transform="matrix(1.07146,0.295485,-0.209762,1.50932,-53.5963,-220.663)">
                <text x="759.829px" y="442.341px" style="font-family:'Avenir-Black', 'Avenir', sans-serif;font-weight:800;font-size:14.42px;fill:white;">c</text>
            </g>
            <g transform="matrix(1.0815,0.210747,-0.149607,1.52347,-53.5963,-220.663)">
                <text x="741.243px" y="484.461px" style="font-family:'Avenir-Black', 'Avenir', sans-serif;font-weight:800;font-size:14.42px;fill:white;">r</text>
            </g>
            <g transform="matrix(1.08861,0.117362,-0.0833142,1.53349,-53.5963,-220.663)">
                <text x="716.511px" y="529.209px" style="font-family:'Avenir-Black', 'Avenir', sans-serif;font-weight:800;font-size:14.42px;fill:white;">u</text>
            </g>
            <g transform="matrix(1.09165,-0.0250209,0.0177621,1.53777,-53.5963,-220.663)">
                <text x="673.271px" y="594.14px" style="font-family:'Avenir-Black', 'Avenir', sans-serif;font-weight:800;font-size:14.42px;fill:white;">m</text>
            </g>
            <g transform="matrix(1.08129,-0.212849,0.1511,1.52318,-53.5963,-220.663)">
                <text x="613.046px" y="673.741px" style="font-family:'Avenir-Black', 'Avenir', sans-serif;font-weight:800;font-size:14.42px;fill:white;">T</text>
            </g>
            <g transform="matrix(1.07071,-0.300816,0.213546,1.50827,-53.5963,-220.663)">
                <text x="579.961px" y="708.6px" style="font-family:'Avenir-Black', 'Avenir', sans-serif;font-weight:800;font-size:14.42px;fill:white;">e</text>
            </g>
            <g transform="matrix(1.05316,-0.405498,0.28786,1.48356,-53.5963,-220.663)">
                <text x="537.714px" y="747.987px" style="font-family:'Avenir-Black', 'Avenir', sans-serif;font-weight:800;font-size:14.42px;fill:white;">a</text>
            </g>
            <g transform="matrix(1.02369,-0.534686,0.379569,1.44204,-53.5963,-220.663)">
                <text x="477.92px" y="793.283px" style="font-family:'Avenir-Black', 'Avenir', sans-serif;font-weight:800;font-size:14.42px;fill:white;">m</text>
            </g>
            <g transform="matrix(1.09179,0,0,1.53798,-53.5963,-220.663)">
                <text x="921.913px" y="615.954px" style="font-family:'Avenir-Roman', 'Avenir', sans-serif;font-size:10.326px;">Scrum Framework © 2020 Scrum.or<tspan x="1086.72px " y="615.954px ">g</tspan></text>
            </g>
        </g>
    </g>
    <defs>
        <linearGradient id="_Linear2" x1="0" y1="0" x2="1" y2="0" gradientUnits="userSpaceOnUse" gradientTransform="matrix(1,0,0,-1,0,1.46333e-07)"><stop offset="0" style="stop-color:rgb(60,97,124);stop-opacity:1"/><stop offset="0.73" style="stop-color:rgb(85,175,197);stop-opacity:1"/><stop offset="1" style="stop-color:rgb(123,187,206);stop-opacity:1"/></linearGradient>
        <linearGradient id="_Linear3" x1="0" y1="0" x2="1" y2="0" gradientUnits="userSpaceOnUse" gradientTransform="matrix(1,0,0,-1,0,4.97403e-06)"><stop offset="0" style="stop-color:rgb(60,97,124);stop-opacity:1"/><stop offset="0.73" style="stop-color:rgb(85,175,197);stop-opacity:1"/><stop offset="1" style="stop-color:rgb(123,187,206);stop-opacity:1"/></linearGradient>
        <linearGradient id="_Linear4" x1="0" y1="0" x2="1" y2="0" gradientUnits="userSpaceOnUse" gradientTransform="matrix(1,0,0,-1,0,2.72683e-05)"><stop offset="0" style="stop-color:rgb(60,97,124);stop-opacity:1"/><stop offset="0.73" style="stop-color:rgb(85,175,197);stop-opacity:1"/><stop offset="1" style="stop-color:rgb(123,187,206);stop-opacity:1"/></linearGradient>
        <linearGradient id="_Linear5" x1="0" y1="0" x2="1" y2="0" gradientUnits="userSpaceOnUse" gradientTransform="matrix(0.766044,0.642788,0.642788,-0.766044,0.116975,-0.321387)"><stop offset="0" style="stop-color:rgb(123,187,206);stop-opacity:1"/><stop offset="0.05" style="stop-color:rgb(123,187,206);stop-opacity:1"/><stop offset="0.59" style="stop-color:rgb(85,175,197);stop-opacity:1"/><stop offset="1" style="stop-color:rgb(62,156,182);stop-opacity:1"/></linearGradient>
        <linearGradient id="_Linear6" x1="0" y1="0" x2="1" y2="0" gradientUnits="userSpaceOnUse" gradientTransform="matrix(-0.179715,0.983719,0.983719,0.179715,0.589856,-0.491858)"><stop offset="0" style="stop-color:rgb(85,175,197);stop-opacity:1"/><stop offset="1" style="stop-color:rgb(60,97,124);stop-opacity:1"/></linearGradient>
        <linearGradient id="_Linear7" x1="0" y1="0" x2="1" y2="0" gradientUnits="userSpaceOnUse" gradientTransform="matrix(1,0,0,-1,0,1.39834e-05)"><stop offset="0" style="stop-color:rgb(60,97,124);stop-opacity:1"/><stop offset="1" style="stop-color:rgb(85,175,197);stop-opacity:1"/></linearGradient>
        <linearGradient id="_Linear8" x1="0" y1="0" x2="1" y2="0" gradientUnits="userSpaceOnUse" gradientTransform="matrix(1,5.55112e-17,5.55112e-17,-1,0,5.41833e-07)"><stop offset="0" style="stop-color:rgb(62,156,182);stop-opacity:1"/><stop offset="0.05" style="stop-color:rgb(62,156,182);stop-opacity:1"/><stop offset="0.5" style="stop-color:rgb(85,175,197);stop-opacity:1"/><stop offset="1" style="stop-color:rgb(62,156,182);stop-opacity:1"/></linearGradient>
        <linearGradient id="_Linear9" x1="0" y1="0" x2="1" y2="0" gradientUnits="userSpaceOnUse" gradientTransform="matrix(1,0,0,-1,0,2.00591e-05)"><stop offset="0" style="stop-color:rgb(60,97,124);stop-opacity:1"/><stop offset="0" style="stop-color:rgb(60,97,124);stop-opacity:1"/><stop offset="0.73" style="stop-color:rgb(85,175,197);stop-opacity:1"/><stop offset="1" style="stop-color:rgb(123,187,206);stop-opacity:1"/></linearGradient>
    </defs>
</svg>
